<svg xmlns="http://www.w3.org/2000/svg" width="920" height="420" font-family="sans-serif">
<rect width="920" height="420" fill="white"/>
<line x1="60" y1="380.0" x2="900" y2="380.0" stroke="#eee"/>
<text x="55" y="383.0" font-size="10" fill="#666" text-anchor="end">0.04</text>
<line x1="60" y1="310.0" x2="900" y2="310.0" stroke="#eee"/>
<text x="55" y="313.0" font-size="10" fill="#666" text-anchor="end">0.18</text>
<line x1="60" y1="240.0" x2="900" y2="240.0" stroke="#eee"/>
<text x="55" y="243.0" font-size="10" fill="#666" text-anchor="end">0.33</text>
<line x1="60" y1="170.0" x2="900" y2="170.0" stroke="#eee"/>
<text x="55" y="173.0" font-size="10" fill="#666" text-anchor="end">0.47</text>
<line x1="60" y1="100.0" x2="900" y2="100.0" stroke="#eee"/>
<text x="55" y="103.0" font-size="10" fill="#666" text-anchor="end">0.62</text>
<line x1="60" y1="30.0" x2="900" y2="30.0" stroke="#eee"/>
<text x="55" y="33.0" font-size="10" fill="#666" text-anchor="end">0.76</text>
<polygon points="755.2,151.5 784.1,189.9 813.1,190.7 842.1,154.5 871.0,173.1 900.0,49.5 900.0,379.1 871.0,229.6 842.1,243.9 813.1,268.5 784.1,257.6 755.2,230.9" fill="#f4a26155" stroke="none"/>
<polygon points="755.2,160.2 784.1,193.9 813.1,194.2 842.1,165.3 871.0,173.7 900.0,186.5 900.0,242.1 871.0,229.0 842.1,233.1 813.1,265.0 784.1,253.7 755.2,222.1" fill="#e9743199" stroke="none"/>
<polyline points="60.0,243.0 89.0,260.0 117.9,235.2 146.9,232.2 175.9,232.2 204.8,234.6 233.8,216.6 262.8,227.5 291.7,227.6 320.7,213.9 349.7,186.9 378.6,207.1 407.6,210.8 436.6,208.3 465.5,194.6 494.5,158.2 523.4,152.5 552.4,175.0 581.4,207.2 610.3,200.0 639.3,208.1 668.3,197.0 697.2,169.8 726.2,47.5" fill="none" stroke="#2c3e50" stroke-width="2"/>
<polyline points="726.2,47.5 755.2,191.2 784.1,223.8 813.1,229.6 842.1,199.2 871.0,201.4 900.0,214.3" fill="none" stroke="#c0392b" stroke-width="2" stroke-dasharray="5,3"/>
<circle cx="726.2" cy="47.5" r="3.5" fill="#8e44ad"/>
<text x="726.2" y="39.5" font-size="9" fill="#8e44ad" text-anchor="middle">Mar26 spike 0.726</text>
<text x="60.0" y="395" font-size="9" fill="#666" text-anchor="middle">2024-04</text>
<text x="175.9" y="395" font-size="9" fill="#666" text-anchor="middle">2024-08</text>
<text x="291.7" y="395" font-size="9" fill="#666" text-anchor="middle">2024-12</text>
<text x="407.6" y="395" font-size="9" fill="#666" text-anchor="middle">2025-04</text>
<text x="523.4" y="395" font-size="9" fill="#666" text-anchor="middle">2025-08</text>
<text x="639.3" y="395" font-size="9" fill="#666" text-anchor="middle">2025-12</text>
<text x="755.2" y="395" font-size="9" fill="#666" text-anchor="middle">2026-04</text>
<text x="871.0" y="395" font-size="9" fill="#666" text-anchor="middle">2026-08</text>
<text x="900.0" y="395" font-size="9" fill="#666" text-anchor="middle">2026-09</text>
<line x1="755.2" y1="30" x2="755.2" y2="380" stroke="#999" stroke-dasharray="2,2"/>
<text x="758.2" y="42" font-size="10" fill="#333">forecast start</text>
<text x="60" y="18" font-size="13" font-weight="bold" fill="#222">Urea FOB benchmark (USD/kg): 24mo history + 6mo Sybilion forecast (P50, 80%/90% bands)</text>
</svg>